<svg width="206" height="336" viewBox="0 0 206 336" fill="none" xmlns="http://www.w3.org/2000/svg">
<path d="M198 58.9459V48C198 25.9086 180.091 8 158 8H48C25.9086 8 8 25.9086 8 48V288C8 310.091 25.9086 328 48 328H158C180.091 328 198 310.091 198 288V212.054" stroke="#1A202C" stroke-width="15" stroke-linecap="round"/>
<ellipse cx="43.8195" cy="159.702" rx="8.09836" ry="8.1409" fill="#1A202C"/>
<ellipse cx="161.869" cy="159.546" rx="8.09836" ry="8.1409" fill="#1A202C"/>
<path d="M87.4263 193.301C92.0465 188.031 104.775 180.652 118.73 193.301" stroke="#1A202C" stroke-width="15" stroke-linecap="round"/>
<path d="M60.7227 45.0587V15H65.7063V39.8238L60.7227 45.0587Z" fill="#1A202C" stroke="#1A202C" stroke-width="15" stroke-linecap="round"/>
<path d="M75.6743 45.0587V15H70.6907V39.8238L75.6743 45.0587Z" fill="#1A202C" stroke="#1A202C" stroke-width="15" stroke-linecap="round"/>
</svg>
