<svg width="56" height="56" viewBox="0 0 56 56" fill="none" xmlns="http://www.w3.org/2000/svg">
<g id="Frame 1984077819" filter="url(#filter0_d_2051_4065)">
<rect width="48" height="48" rx="24" transform="matrix(-1 0 0 1 52 0)" fill="#3563E9" shape-rendering="crispEdges"/>
<path id="Arrow 2" d="M18 25C17.4477 25 17 24.5523 17 24C17 23.4477 17.4477 23 18 23L18 25ZM37.7071 23.2929C38.0976 23.6834 38.0976 24.3166 37.7071 24.7071L31.3431 31.0711C30.9526 31.4616 30.3195 31.4616 29.9289 31.0711C29.5384 30.6805 29.5384 30.0474 29.9289 29.6569L35.5858 24L29.9289 18.3431C29.5384 17.9526 29.5384 17.3195 29.9289 16.9289C30.3195 16.5384 30.9526 16.5384 31.3431 16.9289L37.7071 23.2929ZM18 23L37 23L37 25L18 25L18 23Z" fill="white"/>
</g>
<defs>
<filter id="filter0_d_2051_4065" x="0" y="0" width="56" height="56" filterUnits="userSpaceOnUse" color-interpolation-filters="sRGB">
<feFlood flood-opacity="0" result="BackgroundImageFix"/>
<feColorMatrix in="SourceAlpha" type="matrix" values="0 0 0 0 0 0 0 0 0 0 0 0 0 0 0 0 0 0 127 0" result="hardAlpha"/>
<feOffset dy="4"/>
<feGaussianBlur stdDeviation="2"/>
<feComposite in2="hardAlpha" operator="out"/>
<feColorMatrix type="matrix" values="0 0 0 0 0 0 0 0 0 0 0 0 0 0 0 0 0 0 0.25 0"/>
<feBlend mode="normal" in2="BackgroundImageFix" result="effect1_dropShadow_2051_4065"/>
<feBlend mode="normal" in="SourceGraphic" in2="effect1_dropShadow_2051_4065" result="shape"/>
</filter>
</defs>
</svg>
