<svg width="56" height="56" viewBox="0 0 56 56" fill="none" xmlns="http://www.w3.org/2000/svg">
<g id="Frame 1984077818" filter="url(#filter0_d_2051_4063)">
<rect x="4" width="48" height="48" rx="24" fill="#3563E9" shape-rendering="crispEdges"/>
<path id="Arrow 2" d="M38 25C38.5523 25 39 24.5523 39 24C39 23.4477 38.5523 23 38 23L38 25ZM18.2929 23.2929C17.9024 23.6834 17.9024 24.3166 18.2929 24.7071L24.6569 31.0711C25.0474 31.4616 25.6805 31.4616 26.0711 31.0711C26.4616 30.6805 26.4616 30.0474 26.0711 29.6569L20.4142 24L26.0711 18.3431C26.4616 17.9526 26.4616 17.3195 26.0711 16.9289C25.6805 16.5384 25.0474 16.5384 24.6569 16.9289L18.2929 23.2929ZM38 23L19 23L19 25L38 25L38 23Z" fill="white"/>
</g>
<defs>
<filter id="filter0_d_2051_4063" x="0" y="0" width="56" height="56" filterUnits="userSpaceOnUse" color-interpolation-filters="sRGB">
<feFlood flood-opacity="0" result="BackgroundImageFix"/>
<feColorMatrix in="SourceAlpha" type="matrix" values="0 0 0 0 0 0 0 0 0 0 0 0 0 0 0 0 0 0 127 0" result="hardAlpha"/>
<feOffset dy="4"/>
<feGaussianBlur stdDeviation="2"/>
<feComposite in2="hardAlpha" operator="out"/>
<feColorMatrix type="matrix" values="0 0 0 0 0 0 0 0 0 0 0 0 0 0 0 0 0 0 0.25 0"/>
<feBlend mode="normal" in2="BackgroundImageFix" result="effect1_dropShadow_2051_4063"/>
<feBlend mode="normal" in="SourceGraphic" in2="effect1_dropShadow_2051_4063" result="shape"/>
</filter>
</defs>
</svg>
