<svg width="136" height="20" viewBox="0 0 136 20" fill="none" xmlns="http://www.w3.org/2000/svg">
<path d="M0.48 0.999999H19.368C20.44 0.999999 21.328 1.208 22.032 1.624C22.736 2.024 23.264 2.544 23.616 3.184C23.984 3.824 24.168 4.496 24.168 5.2C24.168 5.904 23.984 6.592 23.616 7.264C23.248 7.92 22.688 8.456 21.936 8.872C21.2 9.288 20.272 9.496 19.152 9.496C19.152 9.496 19.144 9.496 19.128 9.496C19.128 9.496 19.128 9.504 19.128 9.52C19.144 9.52 19.152 9.52 19.152 9.52C20.448 9.52 21.52 9.752 22.368 10.216C23.216 10.68 23.848 11.272 24.264 11.992C24.68 12.712 24.888 13.472 24.888 14.272C24.888 14.864 24.768 15.44 24.528 16C24.304 16.56 23.96 17.072 23.496 17.536C23.032 17.984 22.456 18.344 21.768 18.616C21.08 18.872 20.28 19 19.368 19H0.48C0.48 17.912 0.48 16.832 0.48 15.76C0.48 14.672 0.48 13.584 0.48 12.496C0.48 11.408 0.48 10.328 0.48 9.256C0.48 8.168 0.48 7.08 0.48 5.992C0.48 5.16 0.48 4.328 0.48 3.496C0.48 2.664 0.48 1.832 0.48 0.999999ZM9.936 10.456C9.936 10.632 9.936 10.808 9.936 10.984C9.936 11.16 9.936 11.336 9.936 11.512C9.936 11.64 9.936 11.768 9.936 11.896C9.936 12.008 9.936 12.12 9.936 12.232C9.936 12.344 9.936 12.456 9.936 12.568C9.936 12.584 9.936 12.592 9.936 12.592C9.936 12.592 9.944 12.592 9.96 12.592H13.368C13.8 12.592 14.12 12.48 14.328 12.256C14.552 12.032 14.664 11.776 14.664 11.488C14.664 11.344 14.64 11.216 14.592 11.104C14.544 10.976 14.472 10.864 14.376 10.768C14.296 10.656 14.184 10.576 14.04 10.528C13.912 10.464 13.76 10.432 13.584 10.432H9.96C9.96 10.432 9.952 10.44 9.936 10.456ZM9.96 7.072C9.944 7.072 9.936 7.08 9.936 7.096C9.936 7.192 9.936 7.304 9.936 7.432C9.936 7.544 9.936 7.664 9.936 7.792C9.936 7.904 9.936 8.024 9.936 8.152C9.936 8.328 9.936 8.512 9.936 8.704C9.936 8.88 9.936 9.048 9.936 9.208C9.936 9.224 9.936 9.232 9.936 9.232C9.936 9.232 9.944 9.232 9.96 9.232H13.248C13.536 9.232 13.776 9.184 13.968 9.088C14.16 8.976 14.304 8.84 14.4 8.68C14.496 8.504 14.544 8.32 14.544 8.128C14.544 7.856 14.448 7.616 14.256 7.408C14.08 7.184 13.816 7.072 13.464 7.072H9.96ZM37.47 0.279999C40.414 0.279999 42.862 0.695999 44.814 1.528C46.766 2.36 48.23 3.504 49.206 4.96C50.182 6.416 50.67 8.088 50.67 9.976C50.67 11 50.518 11.992 50.214 12.952C49.91 13.896 49.43 14.784 48.774 15.616C48.118 16.432 47.27 17.152 46.23 17.776C45.19 18.384 43.942 18.856 42.486 19.192C41.046 19.544 39.374 19.72 37.47 19.72C36.11 19.72 34.862 19.624 33.726 19.432C32.606 19.256 31.59 19.008 30.678 18.688C29.766 18.352 28.958 17.952 28.254 17.488C27.566 17.024 26.966 16.512 26.454 15.952C25.958 15.376 25.542 14.768 25.206 14.128C24.886 13.488 24.646 12.816 24.486 12.112C24.342 11.408 24.27 10.696 24.27 9.976C24.27 9.032 24.39 8.136 24.63 7.288C24.886 6.44 25.254 5.656 25.734 4.936C26.23 4.216 26.838 3.576 27.558 3.016C28.294 2.44 29.15 1.952 30.126 1.552C31.102 1.136 32.198 0.823999 33.414 0.615999C34.646 0.391999 35.998 0.279999 37.47 0.279999ZM37.494 7.912C36.934 7.912 36.454 7.976 36.054 8.104C35.67 8.216 35.358 8.376 35.118 8.584C34.894 8.776 34.726 9 34.614 9.256C34.518 9.496 34.47 9.744 34.47 10C34.47 10.336 34.566 10.664 34.758 10.984C34.95 11.304 35.27 11.568 35.718 11.776C36.166 11.984 36.758 12.088 37.494 12.088C37.926 12.088 38.302 12.048 38.622 11.968C38.958 11.888 39.238 11.784 39.462 11.656C39.702 11.512 39.894 11.352 40.038 11.176C40.198 10.984 40.31 10.792 40.374 10.6C40.438 10.392 40.47 10.184 40.47 9.976C40.47 9.736 40.414 9.496 40.302 9.256C40.206 9.016 40.046 8.8 39.822 8.608C39.598 8.4 39.294 8.232 38.91 8.104C38.526 7.976 38.054 7.912 37.494 7.912ZM63.6328 0.279999C66.5768 0.279999 69.0248 0.695999 70.9768 1.528C72.9288 2.36 74.3928 3.504 75.3688 4.96C76.3448 6.416 76.8328 8.088 76.8328 9.976C76.8328 11 76.6808 11.992 76.3768 12.952C76.0728 13.896 75.5928 14.784 74.9368 15.616C74.2808 16.432 73.4328 17.152 72.3928 17.776C71.3528 18.384 70.1048 18.856 68.6488 19.192C67.2088 19.544 65.5368 19.72 63.6328 19.72C62.2728 19.72 61.0248 19.624 59.8888 19.432C58.7688 19.256 57.7528 19.008 56.8408 18.688C55.9288 18.352 55.1208 17.952 54.4168 17.488C53.7288 17.024 53.1288 16.512 52.6168 15.952C52.1208 15.376 51.7048 14.768 51.3688 14.128C51.0488 13.488 50.8088 12.816 50.6488 12.112C50.5048 11.408 50.4328 10.696 50.4328 9.976C50.4328 9.032 50.5528 8.136 50.7928 7.288C51.0488 6.44 51.4168 5.656 51.8968 4.936C52.3928 4.216 53.0008 3.576 53.7208 3.016C54.4568 2.44 55.3128 1.952 56.2888 1.552C57.2648 1.136 58.3608 0.823999 59.5768 0.615999C60.8088 0.391999 62.1608 0.279999 63.6328 0.279999ZM63.6568 7.912C63.0968 7.912 62.6168 7.976 62.2168 8.104C61.8328 8.216 61.5208 8.376 61.2808 8.584C61.0568 8.776 60.8888 9 60.7768 9.256C60.6808 9.496 60.6328 9.744 60.6328 10C60.6328 10.336 60.7288 10.664 60.9208 10.984C61.1128 11.304 61.4328 11.568 61.8808 11.776C62.3288 11.984 62.9208 12.088 63.6568 12.088C64.0888 12.088 64.4648 12.048 64.7848 11.968C65.1208 11.888 65.4008 11.784 65.6248 11.656C65.8648 11.512 66.0568 11.352 66.2008 11.176C66.3608 10.984 66.4728 10.792 66.5368 10.6C66.6008 10.392 66.6328 10.184 66.6328 9.976C66.6328 9.736 66.5768 9.496 66.4648 9.256C66.3688 9.016 66.2088 8.8 65.9848 8.608C65.7608 8.4 65.4568 8.232 65.0728 8.104C64.6888 7.976 64.2168 7.912 63.6568 7.912ZM90.2756 19L86.7956 10C87.1156 9.248 87.4276 8.496 87.7316 7.744C88.0356 6.992 88.3396 6.248 88.6436 5.512C88.9636 4.76 89.2756 4.008 89.5796 3.256C89.8996 2.504 90.2116 1.752 90.5156 0.999999H101.316C101.044 1.56 100.724 2.208 100.356 2.944C99.9876 3.68 99.6116 4.424 99.2276 5.176C98.8596 5.928 98.5156 6.624 98.1956 7.264C97.8756 7.904 97.6116 8.424 97.4036 8.824C97.2116 9.208 97.1156 9.4 97.1156 9.4C97.1156 9.4 97.2196 9.632 97.4276 10.096C97.6356 10.544 97.9076 11.136 98.2436 11.872C98.5796 12.608 98.9476 13.408 99.3476 14.272C99.7476 15.12 100.14 15.96 100.524 16.792C100.908 17.624 101.252 18.36 101.556 19H90.2756ZM76.8356 19C76.8356 17.832 76.8356 16.664 76.8356 15.496C76.8356 14.312 76.8356 13.136 76.8356 11.968C76.8356 10.8 76.8356 9.632 76.8356 8.464C76.8356 7.28 76.8356 6.104 76.8356 4.936C76.8356 4.28 76.8356 3.624 76.8356 2.968C76.8356 2.312 76.8356 1.656 76.8356 0.999999H86.7956C86.7956 1.736 86.7956 2.472 86.7956 3.208C86.7956 3.944 86.7956 4.68 86.7956 5.416C86.7956 6.152 86.7956 6.888 86.7956 7.624C86.7956 8.36 86.7956 9.096 86.7956 9.832C86.7956 9.848 86.7956 9.872 86.7956 9.904C86.7956 9.936 86.7956 9.968 86.7956 10C86.7956 10.016 86.7956 10.032 86.7956 10.048C86.7956 10.064 86.7956 10.088 86.7956 10.12C86.7956 10.136 86.7956 10.152 86.7956 10.168C86.7956 11.64 86.7956 13.112 86.7956 14.584C86.7956 16.056 86.7956 17.528 86.7956 19H76.8356ZM101.288 19C101.288 17.848 101.288 16.696 101.288 15.544C101.288 14.392 101.288 13.24 101.288 12.088C101.288 10.936 101.288 9.784 101.288 8.632C101.288 7.48 101.288 6.328 101.288 5.176C101.288 4.472 101.288 3.776 101.288 3.088C101.288 2.384 101.288 1.688 101.288 0.999999H111.248C111.248 2.552 111.248 4.104 111.248 5.656C111.248 7.192 111.248 8.736 111.248 10.288C111.248 11.248 111.248 12.216 111.248 13.192C111.248 14.152 111.248 15.12 111.248 16.096C111.248 17.056 111.248 18.024 111.248 19H101.288ZM123.585 10C123.585 10 123.585 10.008 123.585 10.024C123.585 10.04 123.577 10.056 123.561 10.072C123.561 10.072 123.561 10.08 123.561 10.096L121.545 19H111.105C111.521 17.976 111.913 16.96 112.281 15.952C112.665 14.928 113.041 13.904 113.409 12.88C113.793 11.856 114.193 10.84 114.609 9.832C114.609 9.816 114.609 9.808 114.609 9.808C114.609 9.792 114.609 9.784 114.609 9.784C113.985 8.312 113.401 6.848 112.857 5.392C112.313 3.92 111.729 2.456 111.105 0.999999H121.905L123.561 9.88C123.561 9.896 123.561 9.912 123.561 9.928C123.577 9.944 123.585 9.968 123.585 10ZM122.817 11.272C122.817 11.256 122.817 11.248 122.817 11.248C122.833 11.232 122.841 11.216 122.841 11.2C122.841 11.184 122.841 11.176 122.841 11.176C123.081 10.04 123.313 8.912 123.537 7.792C123.761 6.656 123.985 5.52 124.209 4.384C124.449 3.248 124.681 2.12 124.905 0.999999H135.321C134.729 2.52 134.169 4.048 133.641 5.584C133.113 7.12 132.545 8.648 131.937 10.168C131.937 10.168 131.937 10.176 131.937 10.192C131.937 10.192 131.937 10.2 131.937 10.216C132.177 10.808 132.409 11.4 132.633 11.992C132.873 12.568 133.105 13.152 133.329 13.744C133.553 14.32 133.777 14.904 134.001 15.496C134.225 16.072 134.449 16.656 134.673 17.248C134.913 17.824 135.153 18.408 135.393 19H124.545L122.841 11.368C122.841 11.352 122.841 11.344 122.841 11.344C122.841 11.328 122.833 11.312 122.817 11.296C122.817 11.28 122.817 11.272 122.817 11.272Z" fill="#3563E9"/>
</svg>
